<svg xmlns="http://www.w3.org/2000/svg" width="672" height="62" viewBox="0 0 672 62">
  <g fill="#FFF404" fill-rule="evenodd">
    <path d="M39.41,11.89 C40.5300056,13.8966767 41.1016666,15.8916567 41.125,17.875 C41.1483335,19.8583432 40.798337,21.7366578 40.075,23.51 C39.3516631,25.2833422 38.3133401,26.9399923 36.96,28.48 C35.6066599,30.0200077 34.1366746,31.3499944 32.55,32.47 C31.8499965,33.0300028 31.0450046,33.6249968 30.135,34.255 C29.2249955,34.8850031 28.2683384,35.4683306 27.265,36.005 C26.2616617,36.5416693 25.2350053,37.0083313 24.185,37.405 C23.1349948,37.8016686 22.0966718,38.0699993 21.07,38.21 C20.8366655,39.9833422 20.7433331,41.7916574 20.79,43.635 C20.8366669,45.4783425 21.1399972,47.1233261 21.7,48.57 C21.8400007,48.8500014 21.9566662,49.2466641 22.05,49.76 C22.1433338,50.2733359 22.1550004,50.7983306 22.085,51.335 C22.0149997,51.8716693 21.8283349,52.3616644 21.525,52.805 C21.2216652,53.2483355 20.7200035,53.5399993 20.02,53.68 C19.4599972,53.68 18.9000028,53.5166683 18.34,53.19 C17.7799972,52.8633317 17.266669,52.4550024 16.8,51.965 C16.333331,51.4749975 15.9250018,50.9266697 15.575,50.32 C15.2249983,49.7133303 14.9800007,49.1300028 14.84,48.57 C13.9533289,46.5633233 13.4400007,44.5333436 13.3,42.48 C13.1599993,40.4266564 13.09,38.2566781 13.09,35.97 C12.2033289,35.1299958 11.4333366,34.0683397 10.78,32.785 C10.1266634,31.5016602 9.9166655,30.2766725 10.15,29.11 C10.4766683,28.2233289 11.0366627,27.7333338 11.83,27.64 C12.6233373,27.5466662 13.4399958,27.6399986 14.28,27.92 C14.28,25.5399881 14.3966655,23.1716784 14.63,20.815 C14.8633345,18.4583215 15.1433317,15.880014 15.47,13.08 C14.0233261,13.3133345 12.5300077,13.7799965 10.99,14.48 C9.4499923,15.1800035 8.2600042,16.2533261 7.42,17.7 C6.8599972,18.5400042 6.10167145,18.726669 5.145,18.26 C4.18832855,17.793331 3.2900042,17.0233387 2.45,15.95 C1.6099958,14.8766613 0.96833555,13.6750066 0.525,12.345 C0.08166445,11.0149933 0.0699979,9.9066711 0.49,9.02 C1.3300042,7.619993 2.4966592,6.5000042 3.99,5.66 C5.4833408,4.8199958 7.08165815,4.17833555 8.785,3.735 C10.4883419,3.29166445 12.2266578,2.96500105 14,2.755 C15.7733422,2.54499895 17.3833261,2.3700007 18.83,2.23 C20.9766774,2.23 23.0299902,2.38166515 24.99,2.685 C26.9500098,2.98833485 28.8049913,3.5133296 30.555,4.26 C32.3050088,5.0066704 33.9266592,5.99832715 35.42,7.235 C36.9133408,8.47167285 38.2433275,10.023324 39.41,11.89 Z M33.6,14.2 C30.1466494,12.4733247 26.7400168,11.9133303 23.38,12.52 C23.846669,13.5000049 24.0450004,14.5266613 23.975,15.6 C23.9049997,16.6733387 23.7533345,17.781661 23.52,18.925 C23.2866655,20.0683391 23.0183349,21.2583272 22.715,22.495 C22.4116652,23.7316729 22.26,24.9799937 22.26,26.24 C26.1800196,24.9333268 29.9599818,21.1066984 33.6,14.76 L33.6,14.2 Z"/>
    <path d="M71.3041634,47.7112544 C71.5807705,47.9911035 71.7766976,48.3608986 71.8919506,48.8206508 C72.0072035,49.280403 72.0302538,49.7401482 71.961102,50.1999004 C71.8919502,50.6596526 71.7075483,51.07942 71.4078906,51.4592153 C71.1082329,51.8390106 70.6818033,52.0888721 70.1285891,52.2088075 C69.5753749,52.2088075 69.0452192,52.0788794 68.5381061,51.8190195 C68.0309931,51.5591596 67.5584631,51.2293423 67.1205018,50.8295578 C66.6825405,50.4297734 62.3276508,41.4332437 61.9588414,40.9734915 C61.5900319,40.5137393 61.2673284,40.1039664 60.9907213,39.7441603 C59.2849775,39.7441603 57.5677341,39.824116 55.8389397,39.9840298 C54.1101452,40.1439436 52.3929018,40.2238993 50.687158,40.2238993 C50.3644497,40.2238993 50.0647965,40.2039104 49.7881894,40.163932 C49.5115823,40.1239535 45.8811421,46.100687 44.1523477,49.0990708 C42.4235533,52.0974545 40.5910586,55.0758043 38.6548089,58.0342096 C38.3782018,58.6338863 37.9863476,58.9537091 37.4792345,58.9936875 C36.9721215,59.033666 36.4304407,58.8837491 35.8541759,58.5439322 C35.2779111,58.2041154 34.71318,57.7243812 34.1599658,57.1047152 C33.6067516,56.4850493 33.1457467,55.8154203 32.7769372,55.0958082 C32.4081277,54.3761961 32.1661001,53.6765837 32.0508471,52.9969501 C31.9355942,52.3173165 32.01627,51.7176487 32.2928772,51.1979289 C36.9029957,43.6420019 41.0289898,35.9562603 44.6709834,28.1404734 C48.312977,20.3246865 51.4478106,12.3790888 54.0755781,4.30344203 C54.4443876,3.34395924 55.0897945,2.91419736 56.0118182,3.01414348 C56.9338419,3.1140896 57.8328016,3.40392902 58.7087241,3.88367041 C59.5385454,4.6032825 60.2185277,5.44281735 60.7486913,6.40230014 C61.2788549,7.36178293 61.5439328,8.36122917 61.5439328,9.40066886 C61.2673257,14.3979751 61.578504,19.4251897 62.4774771,24.4824635 C63.3764502,29.5397374 68.953003,42.9937973 71.3041634,47.7112544 Z M56.0882353,25 C55.7450963,25.9411812 55.3039243,26.9215635 54.7647059,27.9411765 C54.2254875,28.9607894 53.6372581,29.9803871 53,31 L58,31 C57.656861,29.9803871 57.3382368,28.9607894 57.0441176,27.9411765 C56.7499985,26.9215635 56.4313743,25.9411812 56.0882353,25 Z" transform="matrix(-1 0 0 1 104 0)"/>
    <path d="M330.91 48.36C330.91 48.9666697 330.770001 49.4916645 330.49 49.935 330.209999 50.3783355 329.860002 50.7166655 329.44 50.95 329.019998 51.1833345 328.553336 51.3 328.04 51.3 327.526664 51.3 327.036669 51.1366683 326.57 50.81 325.309994 49.876662 324.353337 48.7800063 323.7 47.52 323.046663 46.2599937 322.533335 44.8600077 322.16 43.32 322.16 40.7999874 322.066668 38.3033457 321.88 35.83 321.693332 33.3566543 321.6 30.8600126 321.6 28.34 321.226665 28.9933366 320.783336 29.7283293 320.27 30.545 319.756664 31.3616708 319.360001 32.0966634 319.08 32.75 318.753332 33.4033366 318.333336 33.7533331 317.82 33.8 317.306664 33.8466669 316.781669 33.7533345 316.245 33.52 315.708331 33.2866655 315.183336 32.9716686 314.67 32.575 314.156664 32.1783314 313.736668 31.8166683 313.41 31.49 312.756663 30.556662 312.150003 29.6933373 311.59 28.9 311.029997 28.1066627 310.610001 27.0800063 310.33 25.82 309.396662 27.7333429 308.603337 29.4949919 307.95 31.105 307.296663 32.715008 306.643337 34.2899923 305.99 35.83 304.729994 38.9566823 303.365007 42.0833177 301.895 45.21 300.424993 48.3366823 299.060006 51.4633177 297.8 54.59 297.986668 54.9166683 298.08 55.2899979 298.08 55.71 298.08 56.1300021 297.998334 56.5383314 297.835 56.935 297.671666 57.3316686 297.438335 57.6699986 297.135 57.95 296.831665 58.2300014 296.446669 58.37 295.98 58.37 295.326663 58.6500014 294.69667 58.6966676 294.09 58.51 293.48333 58.3233324 292.87667 58.0433352 292.27 57.67 291.289995 56.736662 290.508336 55.675006 289.925 54.485 289.51248 53.6434591 289.245824 52.784424 289.125028 51.9078818 289.075009 51.5449233 289.05 51.178963 289.05 50.81 289.05 50.3597443 289.283333 49.5430776 289.75 48.36 290.45 46.5853836 292.386659 41.4066837 293.88 38 295.373341 34.5933163 296.913325 31.1866837 298.5 27.78 299.760006 24.2799825 301.183325 20.8733499 302.77 17.56 304.356675 14.2466501 306.269989 11.190014 308.51 8.39 308.790001 7.7366634 309.116665 7.3633338 309.49 7.27 309.863335 7.1766662 310.329997 7.13 310.89 7.13 312.523342 7.7833366 313.818329 8.70499405 314.775 9.895 315.731671 11.0850059 316.536663 12.4499923 317.19 13.99 317.843337 12.4499923 318.578329 10.7933422 319.395 9.02 320.211671 7.2466578 320.946663 5.5666746 321.6 3.98 321.926668 2.9066613 322.404997 2.28833415 323.035 2.125 323.665003 1.96166585 324.329996 2.05499825 325.03 2.405 325.730004 2.75500175 326.394997 3.2799965 327.025 3.98 327.655003 4.6800035 328.109999 5.3333303 328.39 5.94 329.323338 7.6200084 329.953332 9.3233247 330.28 11.05 330.606668 12.7766753 330.77 14.5149912 330.77 16.265 330.77 18.0150087 330.700001 19.7883243 330.56 21.585 330.419999 23.3816756 330.35 25.213324 330.35 27.08 329.976665 30.5800175 329.906666 34.1266487 330.14 37.72 330.373335 41.3133513 330.629999 44.8599825 330.91 48.36zM97.31 12.45C97.31 17.1633569 96.9716701 21.8416434 96.295 26.485 95.6183299 31.1283565 94.4633415 35.6433114 92.83 40.03 92.0366627 41.7566753 91.0333394 43.5066578 89.82 45.28 88.6066606 47.0533422 87.2183412 48.5699937 85.655 49.83 84.0916588 51.0900063 82.376676 51.9649976 80.51 52.455 78.643324 52.9450024 76.6833436 52.7933373 74.63 52 72.296655 51.2533296 70.301675 50.0866746 68.645 48.5 66.9883251 46.9133254 65.6466718 45.1050101 64.62 43.075 63.5933282 41.0449898 62.8816686 38.8516784 62.485 36.495 62.0883313 34.1383215 61.9599993 31.793345 62.1 29.46 62.4266683 27.2199888 62.7649983 24.9100119 63.115 22.53 63.4650017 20.1499881 63.9666634 17.8400112 64.62 15.6 65.2733366 13.3599888 66.1716609 11.3883419 67.315 9.685 68.4583391 7.98165815 69.6599937 6.196676 70.92 4.33 71.3400021 3.5833296 71.8649969 3.19833345 72.495 3.175 73.1250031 3.15166655 73.7549968 3.36166445 74.385 3.805 75.0150031 4.24833555 75.6333303 4.85499615 76.24 5.625 76.8466697 6.39500385 77.3366648 7.23499545 77.71 8.145 78.0833352 9.05500455 78.3049997 9.9533289 78.375 10.84 78.4450003 11.7266711 78.2700021 12.4733303 77.85 13.08 77.1966634 14.6666746 76.4500042 16.1366599 75.61 17.49 74.7699958 18.8433401 74.0466697 20.2899923 73.44 21.83 72.7866634 23.0900063 72.2733352 24.5833247 71.9 26.31 71.5266648 28.0366753 71.2000014 29.6933254 70.92 31.28 70.7333324 31.9333366 70.5700007 32.6333296 70.43 33.38 70.2899993 34.1266704 70.2083334 34.8849961 70.185 35.655 70.1616666 36.4250038 70.1966662 37.1949961 70.29 37.965 70.3833338 38.7350038 70.5933317 39.4233303 70.92 40.03 71.2000014 41.0100049 71.8649947 41.5583327 72.915 41.675 73.9650052 41.7916672 74.956662 41.6633352 75.89 41.29 77.290007 40.9633317 78.5499944 40.3683376 79.67 39.505 80.7900056 38.6416623 81.7583292 37.6033394 82.575 36.39 83.3916708 35.1766606 84.0799972 33.8466739 84.64 32.4 85.2000028 30.9533261 85.6199986 29.530007 85.9 28.13 87.2066732 24.6766494 88.0699979 21.2350171 88.49 17.805 88.9100021 14.3749828 89.12 10.9100175 89.12 7.41 88.9799993 6.8033303 89.0033324 6.266669 89.19 5.8 89.3766676 5.333331 89.6683314 4.9833345 90.065 4.75 90.4616686 4.5166655 90.9049976 4.4 91.395 4.4 91.8850025 4.4 92.363331 4.5633317 92.83 4.89 94.0900063 5.823338 95.1516624 7.00165955 96.015 8.425 96.8783376 9.84834045 97.31 11.1899937 97.31 12.45zM126.92 37.86C127.573337 37.6733324 128.226663 37.7433317 128.88 38.07 129.533337 38.3966683 130.128331 38.8866634 130.665 39.54 131.201669 40.1933366 131.656665 40.9399958 132.03 41.78 132.403335 42.6200042 132.625 43.4249961 132.695 44.195 132.765 44.9650039 132.660001 45.6533303 132.38 46.26 132.099999 46.8666697 131.58667 47.2633324 130.84 47.45 127.386649 48.0100028 123.991683 48.5699972 120.655 49.13 117.318317 49.6900028 113.946684 50.2499972 110.54 50.81 109.093326 51.0900014 107.576675 51.4166648 105.99 51.79 104.403325 52.1633352 102.910007 52.2333345 101.51 52 100.063326 51.3933303 98.8266718 50.3433408 97.8 48.85 96.7733282 47.3566592 96.0966683 45.7466753 95.77 44.02 95.6299993 43.3199965 95.5949996 42.5500042 95.665 41.71 95.7350003 40.8699958 95.8399993 40.0300042 95.98 39.19 96.1200007 38.3499958 96.2833324 37.5216707 96.47 36.705 96.6566676 35.8883292 96.8199993 35.1300035 96.96 34.43 97.5200028 32.9833261 98.0799972 31.5716735 98.64 30.195 99.2000028 28.8183264 99.7599972 27.4066739 100.32 25.96 101.440006 22.8333177 102.781659 19.8350143 104.345 16.965 105.908341 14.0949857 107.389993 11.260014 108.79 8.46 109.070001 7.8999972 109.443331 7.5966669 109.91 7.55 110.376669 7.5033331 110.866664 7.58499895 111.38 7.795 111.893336 8.00500105 112.371664 8.28499825 112.815 8.635 113.258336 8.98500175 113.619999 9.2999986 113.9 9.58 114.50667 10.4200042 114.996665 11.4699937 115.37 12.73 115.743335 13.9900063 115.650003 15.1799944 115.09 16.3 114.109995 18.4466774 113.095005 20.5466564 112.045 22.6 110.994995 24.6533436 110.003338 26.7299895 109.07 28.83 108.136662 30.9300105 107.250004 33.0416561 106.41 35.165 105.569996 37.2883439 104.870003 39.4933219 104.31 41.78 105.710007 41.4533317 107.028327 41.1616679 108.265 40.905 109.501673 40.6483321 110.79666 40.3800014 112.15 40.1 114.763346 39.7733317 117.306654 39.376669 119.78 38.91 122.253346 38.443331 124.633322 38.0933345 126.92 37.86zM163.67 47C163.950001 47.3266683 164.148333 47.7583307 164.265 48.295 164.381667 48.8316694 164.405 49.3683307 164.335 49.905 164.265 50.4416694 164.078335 50.9316645 163.775 51.375 163.471665 51.8183356 163.040003 52.1099993 162.48 52.25 161.919997 52.25 161.383336 52.0983349 160.87 51.795 160.356664 51.4916652 159.878336 51.106669 159.435 50.64 158.991664 50.173331 158.583335 49.6716694 158.21 49.135 157.836665 48.5983307 156.510001 46.1200021 156.23 45.7 154.503325 45.7 152.765009 45.7933324 151.015 45.98 149.264991 46.1666676 147.526675 46.26 145.8 46.26 145.473332 46.26 145.170001 46.2366669 144.89 46.19 144.609999 46.1433331 144.306668 45.9800014 143.98 45.7 142.533326 49.4800189 141.58001 51.5966494 139.62 55.05 139.339999 55.7500035 138.943336 56.1233331 138.43 56.17 137.916664 56.2166669 137.368336 56.0416687 136.785 55.645 136.201664 55.2483313 135.630003 54.6883369 135.07 53.965 134.509997 53.241663 134.043335 52.4600042 133.67 51.62 133.296665 50.7799958 133.051667 49.9633373 132.935 49.17 132.818333 48.3766627 132.899999 47.6766697 133.18 47.07 137.84669 38.2499559 136.023315 41.2783789 139.71 32.155 143.396685 23.0316211 146.569987 13.7567138 149.23 4.33 149.603335 3.2099944 150.256662 2.70833275 151.19 2.825 152.123338 2.94166725 153.033329 3.2799972 153.92 3.84 154.760004 4.6800042 155.448331 5.6599944 155.985 6.78 156.521669 7.9000056 156.79 9.0666606 156.79 10.28 156.509999 16.1133625 156.824995 21.9816371 157.735 27.885 158.645005 33.7883628 161.289988 41.4933058 163.67 47zM150.98 28.76C150.653332 29.8800056 150.233336 31.0466606 149.72 32.26 149.206664 33.4733394 148.64667 34.6866606 148.04 35.9L152.8 35.9C152.473332 34.6866606 152.170001 33.4733394 151.89 32.26 151.609999 31.0466606 151.306668 29.8800056 150.98 28.76zM234.63 17.14C236.263342 19.4266781 237.126666 21.6666557 237.22 23.86 237.313334 26.0533443 236.893338 28.1766564 235.96 30.23 235.026662 32.2833436 233.731675 34.2783237 232.075 36.215 230.418325 38.1516764 228.656676 40.0183244 226.79 41.815 224.923324 43.6116757 223.103342 45.338325 221.33 46.995 219.556658 48.651675 218.110006 50.2266592 216.99 51.72 216.943333 53.1666739 216.745002 54.1816637 216.395 54.765 216.044998 55.3483363 215.590003 55.6283335 215.03 55.605 214.469997 55.5816666 213.863337 55.3250025 213.21 54.835 212.556663 54.3449976 211.92667 53.7266704 211.32 52.98 210.71333 52.2333296 210.165002 51.4516708 209.675 50.635 209.184998 49.8183292 208.823335 49.0600035 208.59 48.36 207.656662 43.4133086 206.898336 38.3966921 206.315 33.31 205.731664 28.2233079 204.950005 23.2766907 203.97 18.47 203.596665 18.47 203.235002 18.4933331 202.885 18.54 202.534998 18.5866669 202.033337 18.7966648 201.38 19.17 200.819997 19.2633338 200.213337 19.0883356 199.56 18.645 198.906663 18.2016645 198.288336 17.5833373 197.705 16.79 197.121664 15.9966627 196.585002 15.1100049 196.095 14.13 195.604998 13.1499951 195.266668 12.2166711 195.08 11.33 194.893332 10.4433289 194.869999 9.6500035 195.01 8.95 195.150001 8.2499965 195.546663 7.7833345 196.2 7.55 196.666669 7.55 197.179997 7.46833415 197.74 7.305 198.300003 7.14166585 198.88333 6.97833415 199.49 6.815 200.09667 6.65166585 200.714997 6.5000007 201.345 6.36 201.975003 6.2199993 202.616663 6.1733331 203.27 6.22 203.27 4.8666599 203.701662 3.9100028 204.565 3.35 205.428338 2.7899972 206.349995 2.8599965 207.33 3.56 207.983337 3.8866683 208.496665 4.2366648 208.87 4.61 209.243335 4.9833352 209.569999 5.5199965 209.85 6.22 212.090011 6.5000014 214.376655 6.86166445 216.71 7.305 219.043345 7.74833555 221.306656 8.3666627 223.5 9.16 225.693344 9.9533373 227.746657 10.9916603 229.66 12.275 231.573343 13.5583398 233.229993 15.1799902 234.63 17.14zM228.05 21.9C222.916641 19.1933198 217.736693 17.84 212.51 17.84 212.51 19.0533394 212.579999 20.2783271 212.72 21.515 212.860001 22.7516728 213.034999 24.0816595 213.245 25.505 213.455001 26.9283405 213.664999 28.5033247 213.875 30.23 214.085001 31.9566753 214.283332 33.8933226 214.47 36.04 215.07667 35.573331 215.706663 35.0483363 216.36 34.465 217.013337 33.8816638 217.829995 33.0766718 218.81 32.05 219.790005 31.0233282 221.014993 29.7050081 222.485 28.095 223.955007 26.4849919 225.809989 24.4200126 228.05 21.9z"/>
    <path d="M292.01,35.86 C292.663337,35.6733324 293.316663,35.7433317 293.97,36.07 C294.623337,36.3966683 295.218331,36.8866634 295.755,37.54 C296.291669,38.1933366 296.746665,38.9399958 297.12,39.78 C297.493335,40.6200042 297.715,41.4249961 297.785,42.195 C297.855,42.9650039 297.750001,43.6533303 297.47,44.26 C297.189999,44.8666697 296.67667,45.2633324 295.93,45.45 C292.476649,46.0100028 289.081683,46.5699972 285.745,47.13 C282.408317,47.6900028 279.036684,48.2499972 275.63,48.81 C274.183326,49.0900014 272.666675,49.4166648 271.08,49.79 C269.493325,50.1633352 268.000007,50.2333345 266.6,50 C265.153326,49.3933303 263.916672,48.3433408 262.89,46.85 C261.863328,45.3566592 261.186668,43.7466753 260.86,42.02 C260.719999,41.3199965 260.685,40.5500042 260.755,39.71 C260.825,38.8699958 260.929999,38.0300042 261.07,37.19 C261.210001,36.3499958 261.373332,35.5216707 261.56,34.705 C261.746668,33.8883292 261.909999,33.1300035 262.05,32.43 C262.610003,30.9833261 263.169997,29.5716735 263.73,28.195 C264.290003,26.8183264 264.849997,25.4066739 265.41,23.96 C266.530006,20.8333177 267.871659,17.8350143 269.435,14.965 C270.998341,12.0949857 272.479993,9.260014 273.88,6.46 C274.160001,5.8999972 274.533331,5.5966669 275,5.55 C275.466669,5.5033331 275.956664,5.58499895 276.47,5.795 C276.983336,6.00500105 277.461664,6.28499825 277.905,6.635 C278.348336,6.98500175 278.709999,7.2999986 278.99,7.58 C279.59667,8.4200042 280.086665,9.4699937 280.46,10.73 C280.833335,11.9900063 280.740003,13.1799944 280.18,14.3 C279.199995,16.4466774 278.185005,18.5466564 277.135,20.6 C276.084995,22.6533436 275.093338,24.7299895 274.16,26.83 C273.226662,28.9300105 272.340004,31.0416561 271.5,33.165 C270.659996,35.2883439 269.960003,37.4933219 269.4,39.78 C270.800007,39.4533317 272.118327,39.1616679 273.355,38.905 C274.591673,38.6483321 275.88666,38.3800014 277.24,38.1 C279.853346,37.7733317 282.396654,37.376669 284.87,36.91 C287.343346,36.443331 289.723322,36.0933345 292.01,35.86 Z"/>
    <path d="M264.54,49 C264.820001,49.3266683 265.018333,49.7583306 265.135,50.295 C265.251667,50.8316693 265.275,51.3683306 265.205,51.905 C265.135,52.4416693 264.948335,52.9316644 264.645,53.375 C264.341665,53.8183355 263.910003,54.1099993 263.35,54.25 C262.789997,54.25 262.253336,54.0983348 261.74,53.795 C261.226664,53.4916651 258.748336,51.106669 258.305,50.64 C257.861664,50.173331 257.453335,49.6716693 257.08,49.135 C256.706665,48.5983306 256.380001,48.1200021 256.1,47.7 C254.373325,47.7 246.396675,46.26 244.67,46.26 C244.343332,46.26 244.040001,46.2366669 243.76,46.19 C243.479999,46.1433331 242.805009,46.1199825 241.055,49.62 C239.304991,53.1200175 237.45001,56.5966494 235.49,60.05 C235.209999,60.7500035 234.813336,61.1233331 234.3,61.17 C233.786664,61.2166669 233.238336,61.0416687 232.655,60.645 C232.071664,60.2483314 231.500003,59.688337 230.94,58.965 C230.379997,58.2416631 229.913335,57.4600042 229.54,56.62 C229.166665,55.7799958 228.921667,54.9633373 228.805,54.17 C228.688333,53.3766627 228.769999,52.6766697 229.05,52.07 C233.71669,43.2499559 234.893315,41.278379 238.58,32.155 C242.266685,23.0316211 245.439987,17.7567138 248.1,8.33 C248.473335,7.2099944 249.126662,6.70833275 250.06,6.825 C250.993338,6.94166725 251.903329,7.2799972 252.79,7.84 C253.630004,8.6800042 254.318331,9.6599944 254.855,10.78 C255.391669,11.9000056 255.66,13.0666606 255.66,14.28 C255.379999,20.1133625 255.694995,21.9816371 256.605,27.885 C257.515005,33.7883629 262.159988,43.4933058 264.54,49 Z M249.85,28.76 C249.523332,29.8800056 249.103336,31.0466606 248.59,32.26 C248.076664,33.4733394 247.51667,34.6866606 246.91,35.9 L251.67,35.9 C251.343332,34.6866606 251.040001,33.4733394 250.76,32.26 C250.479999,31.0466606 250.176668,29.8800056 249.85,28.76 Z"/>
    <path d="M358.76,45 C359.040001,45.3266683 359.238333,45.7583307 359.355,46.295 C359.471667,46.8316694 359.495,47.3683307 359.425,47.905 C359.355,48.4416694 359.168335,48.9316645 358.865,49.375 C358.561665,49.8183356 358.130003,50.1099993 357.57,50.25 C357.009997,50.25 356.473336,50.0983349 355.96,49.795 C355.446664,49.4916652 354.968336,49.106669 354.525,48.64 C354.081664,48.173331 353.673335,47.6716694 353.3,47.135 C352.926665,46.5983307 352.600001,46.1200021 352.32,45.7 C350.593325,45.7 348.855009,45.7933324 347.105,45.98 C345.354991,46.1666676 343.616675,46.26 341.89,46.26 C341.563332,46.26 341.260001,46.2366669 340.98,46.19 C340.699999,46.1433331 340.396668,45.9800014 340.07,45.7 C338.623326,49.4800189 338.67001,49.5966494 336.71,53.05 C336.429999,53.7500035 336.033336,54.1233331 335.52,54.17 C335.006664,54.2166669 334.458336,54.0416687 333.875,53.645 C333.291664,53.2483313 332.720003,52.6883369 332.16,51.965 C331.599997,51.241663 331.133335,50.4600042 330.76,49.62 C330.386665,48.7799958 330.141667,47.9633373 330.025,47.17 C329.908333,46.3766627 329.989999,45.6766697 330.27,45.07 C334.93669,36.2499559 332.113315,41.278379 335.8,32.155 C339.486685,23.0316211 342.659987,13.7567138 345.32,4.33 C345.693335,3.2099944 346.346662,2.70833275 347.28,2.825 C348.213338,2.94166725 349.123329,3.2799972 350.01,3.84 C350.850004,4.6800042 351.538331,5.6599944 352.075,6.78 C352.611669,7.9000056 352.88,9.0666606 352.88,10.28 C353.3,16.1281738 353.914995,21.9816371 354.825,27.885 C355.735005,33.7883629 356.379988,39.4933058 358.76,45 Z M347.07,28.76 C346.743332,29.8800056 346.323336,31.0466606 345.81,32.26 C345.296664,33.4733394 344.73667,34.6866606 344.13,35.9 L348.89,35.9 C348.563332,34.6866606 348.260001,33.4733394 347.98,32.26 C347.699999,31.0466606 347.396668,29.8800056 347.07,28.76 Z" transform="matrix(-1 0 0 1 689.438 0)"/>
    <path d="M385.768948,5.57866295 C386.467442,5.49090016 387.144099,5.67739329 387.798937,6.13814794 C388.453776,6.59890259 389.043122,7.21323291 389.566993,7.98115732 C390.090863,8.74908174 390.516502,9.60475611 390.843921,10.5482061 C391.171341,11.4916561 391.356875,12.3692708 391.400531,13.1810767 C391.444187,13.9928825 391.302308,14.6730339 390.974888,15.2215513 C390.647469,15.7700688 390.090865,16.0443234 389.305058,16.0443234 C386.380113,16.3514931 383.433384,16.6586583 380.464782,16.9658281 C377.496181,17.2729978 374.37483,17.580163 371.100638,17.8873328 C370.22752,23.1531002 369.62726,28.4078185 369.299841,33.6516452 C368.972421,38.8954719 368.808714,44.2818324 368.808714,49.8108882 C368.459467,51.0834486 367.968345,51.9720336 367.335335,52.4766696 C366.702324,52.9813057 365.818305,52.9264547 364.683252,52.3121152 C363.504542,51.3906059 362.522299,50.2497067 361.736493,48.8893835 C360.950687,47.5290602 360.55779,46.2126381 360.55779,44.9400777 C360.55779,40.2886498 360.797893,35.779904 361.278108,31.4137052 C361.758323,27.0475064 362.282186,22.5387607 362.849713,17.8873328 C361.409068,18.2383839 359.859307,18.4358472 358.200383,18.4797286 C356.541458,18.52361 354.969869,18.5455504 353.485569,18.5455504 C352.83073,18.5455504 352.175901,18.282266 351.521063,17.7556892 C350.866224,17.2291125 350.276878,16.5818716 349.753007,15.8139472 C349.229137,15.0460228 348.803498,14.2013186 348.476079,13.2798093 C348.148659,12.3583 347.963125,11.5135958 347.919469,10.7456714 C347.875813,9.97774698 348.017692,9.33050611 348.345112,8.80392937 C348.672531,8.27735263 349.229135,8.0140682 350.014942,8.0140682 C355.908489,7.70689844 361.801947,7.37779291 367.695494,7.02674175 C373.589041,6.67569059 379.613466,6.19300248 385.768948,5.57866295 Z"/>
    <path d="M401.875,36.89 C402.458336,37.3100021 403.006664,37.85833 403.52,38.535 C404.033336,39.2116701 404.453332,39.9583293 404.78,40.775 C405.106668,41.5916708 405.305,42.3616631 405.375,43.085 C405.445,43.808337 405.340001,44.4383307 405.06,44.975 C404.779999,45.5116694 404.26667,45.8266662 403.52,45.92 C400.113316,46.4800028 400.090017,46.4699944 396.73,47.59 C397.290003,48.1500028 391.410001,50.1100014 391.13,49.83 C390.52333,49.83 390.033335,49.9233324 389.66,50.11 C389.286665,50.2966676 388.820003,50.39 388.26,50.39 C387.279995,50.8100021 386.276672,50.658337 385.25,49.935 C384.223328,49.2116631 383.395003,48.2783391 382.765,47.135 C382.134997,45.991661 381.808333,44.8483391 381.785,43.705 C381.761667,42.561661 382.239995,41.7800021 383.22,41.36 C384.340006,40.7999972 385.459994,40.3333352 386.58,39.96 C387.700006,39.5866648 388.819994,39.1200028 389.94,38.56 C390.266668,37.7199958 390.476666,36.7866718 390.57,35.76 C390.663334,34.7333282 390.849999,33.8000042 391.13,32.96 L392.74,26.52 C393.253336,24.4666564 393.649999,22.2966781 393.93,20.01 C393.836666,20.1033338 393.720001,20.1966662 393.58,20.29 C393.299999,20.4766676 393.043335,20.57 392.81,20.57 C391.829995,20.8500014 390.850005,20.5933373 389.87,19.8 C388.889995,19.0066627 388.09667,18.0266725 387.49,16.86 C386.88333,15.6933275 386.556667,14.5383391 386.51,13.395 C386.463333,12.251661 386.859996,11.4700021 387.7,11.05 C389.146674,10.4899972 390.663325,10.0466683 392.25,9.72 C393.836675,9.3933317 401.609989,8.13 403.85,8.13 C404.503337,8.13 405.144997,8.363331 405.775,8.83 C406.405003,9.296669 406.976664,9.8799965 407.49,10.58 C408.003336,11.2800035 408.423332,12.0499958 408.75,12.89 C409.076668,13.7300042 409.251667,14.4999965 409.275,15.2 C409.298333,15.9000035 409.158335,16.483331 408.855,16.95 C408.551665,17.416669 408.02667,17.65 407.28,17.65 C405.273323,17.65 405.41001,17.4899986 403.45,17.77 C402.609996,20.6166809 401.88667,23.3466536 401.28,25.96 C400.67333,28.5733464 400.090003,31.279986 399.53,34.08 C399.53,34.3600014 399.506667,34.6399986 399.46,34.92 C399.413333,35.2000014 401.291664,36.4699979 401.875,36.89 Z"/>
    <path d="M437.6,6.22 C438.440004,7.0133373 439.174997,8.05166025 439.805,9.335 C440.435003,10.6183398 440.633335,11.9366599 440.4,13.29 C438.999993,19.5900315 437.611674,25.8549689 436.235,32.085 C434.858326,38.3150312 433.610006,44.5566354 432.49,50.81 C432.49,51.2300021 432.361668,51.5566655 432.105,51.79 C431.848332,52.0233345 431.545002,52.1749997 431.195,52.245 C430.844998,52.3150004 430.471669,52.3266669 430.075,52.28 C429.678331,52.2333331 429.340001,52.1400007 429.06,52 C428.266663,51.3933303 427.660002,50.7166704 427.24,49.97 C426.819998,49.2233296 426.330003,48.4300042 425.77,47.59 C424.043325,44.0433156 422.608339,40.4850179 421.465,36.915 C420.321661,33.3449822 419.306671,29.6466858 418.42,25.82 C417.019993,29.9266872 415.503342,34.0916456 413.87,38.315 C412.236659,42.5383545 410.556675,46.7033128 408.83,50.81 C408.549999,51.6500042 408.153336,52.1399993 407.64,52.28 C407.126664,52.4200007 406.56667,52.3383349 405.96,52.035 C405.35333,51.7316652 404.770003,51.2650032 404.21,50.635 C403.649997,50.0049969 403.160002,49.3166704 402.74,48.57 C402.319998,47.8233296 402.040001,47.0650039 401.9,46.295 C401.759999,45.5249962 401.829999,44.8600028 402.11,44.3 C404.396678,38.0466354 406.636656,31.8050312 408.83,25.575 C411.023344,19.3449689 413.09999,13.0800315 415.06,6.78 C415.200001,6.2199972 415.456665,5.8233345 415.83,5.59 C416.203335,5.3566655 416.623331,5.24 417.09,5.24 C417.556669,5.24 418.011664,5.3333324 418.455,5.52 C418.898336,5.7066676 419.259999,5.9399986 419.54,6.22 C420.380004,7.0133373 421.056664,7.93499475 421.57,8.985 C422.083336,10.0350053 422.34,11.0966613 422.34,12.17 C422.900003,15.9966858 423.599996,19.7883146 424.44,23.545 C425.280004,27.3016855 426.283328,30.9533156 427.45,34.5 C428.243337,29.83331 429.083329,25.2133562 429.97,20.64 C430.856671,16.0666438 431.883328,11.44669 433.05,6.78 C433.190001,6.2199972 433.446665,5.8233345 433.82,5.59 C434.193335,5.3566655 434.613331,5.24 435.08,5.24 C435.546669,5.24 436.013331,5.3333324 436.48,5.52 C436.946669,5.7066676 437.319999,5.9399986 437.6,6.22 Z" transform="rotate(-11 421.162 28.793)"/>
    <path d="M499.16,16.3478964 C499.813337,16.0615765 500.536663,16.051351 501.33,16.3172194 C502.123337,16.5830879 502.85833,17.0125614 503.535,17.6056526 C504.21167,18.1987439 504.829997,18.8940818 505.39,19.6916873 C505.950003,20.4892928 506.334999,21.2766608 506.545,22.0538148 C506.755001,22.8309689 506.755001,23.5365324 506.545,24.1705265 C506.334999,24.8045206 505.85667,25.2646707 505.11,25.5509907 C503.75666,26.1645333 502.321674,26.7576157 500.805,27.3302555 C499.288326,27.9028954 497.876673,28.4755266 496.57,29.0481665 L496.57,46.9635232 C496.57,48.3951228 496.150004,49.2847464 495.31,49.6324206 C494.469996,49.9800947 493.560005,49.8676136 492.58,49.2949738 C491.926663,49.0086538 491.320003,48.6200826 490.76,48.1292485 C490.199997,47.6384143 489.710002,47.1066853 489.29,46.5340455 C488.869998,45.9614057 488.531668,45.3580977 488.275,44.7241036 C488.018332,44.0901095 487.89,43.4868016 487.89,42.9141618 L487.89,32.5453423 L480.05,35.9811641 L480.05,55.1236001 C480.05,56.4324912 479.71167,57.199408 479.035,57.4243737 C478.35833,57.6493393 477.565005,57.5982115 476.655,57.2709888 C475.744995,56.943766 474.858338,56.4427137 473.995,55.7678167 C473.131662,55.0929198 472.490002,54.4896118 472.07,53.9578748 C471.229996,52.853498 470.716668,51.6059799 470.53,50.2152832 C470.343332,48.8245864 470.296666,47.4032339 470.39,45.9511829 C470.483334,44.4991318 470.658332,43.0573282 470.915,41.6257286 C471.171668,40.194129 471.346666,38.8852576 471.44,37.699075 C470.599996,36.9628238 469.888336,36.1038769 469.305,35.1222087 C468.721664,34.1405404 468.383334,33.1588868 468.29,32.1772185 C468.196666,31.1955502 468.394998,30.3161522 468.885,29.5389982 C469.375002,28.7618441 470.226661,28.2301151 471.44,27.9437952 C471.44,23.8535106 471.544999,19.8144152 471.755,15.8263878 C471.965001,11.8383603 472.07,7.98332495 472.07,4.26116601 C472.07,3.07498349 472.524995,2.23648773 473.435,1.74565359 C474.345005,1.25481944 475.453327,1.31617279 476.76,1.92971547 C477.226669,2.21603539 477.728331,2.60460659 478.265,3.09544074 C478.801669,3.58627489 479.279998,4.1180039 479.7,4.69064374 C480.120002,5.26328358 480.434999,5.8665915 480.645,6.5005856 C480.855001,7.13457971 480.890001,7.73788763 480.75,8.31052747 L480.75,23.2808941 C480.936668,23.2808941 481.344997,23.1581874 481.975,22.9127703 C482.605003,22.6673532 483.304996,22.3708121 484.075,22.0231379 C484.845004,21.6754637 485.579997,21.3482458 486.28,21.0414745 C486.980004,20.7347031 487.516665,20.5199664 487.89,20.3972579 L487.89,3.64762639 C487.89,2.46144387 488.321662,1.62294812 489.185,1.13211397 C490.048338,0.641279824 490.969995,0.682182056 491.95,1.25482189 C493.256673,2.19558734 494.353329,3.31017316 495.24,4.5986128 C496.126671,5.88705243 496.57,7.12434495 496.57,8.31052747 L496.57,16.961436 C496.896668,16.961436 497.246665,16.8591805 497.62,16.6546662 C497.993335,16.450152 498.506663,16.3478964 499.16,16.3478964 Z"/>
    <path d="M526.83,45 C527.110001,45.3266683 527.308333,45.7583306 527.425,46.295 C527.541667,46.8316693 527.565,47.3683307 527.495,47.905 C527.425,48.4416693 527.238335,48.9316644 526.935,49.375 C526.631665,49.8183356 526.200003,50.1099993 525.64,50.25 C525.079997,50.25 524.543336,50.0983349 524.03,49.795 C523.516664,49.4916651 523.038336,49.106669 522.595,48.64 C522.151664,48.173331 521.743335,47.6716693 521.37,47.135 C520.996665,46.5983306 520.670001,46.1200021 520.39,45.7 C518.663325,45.7 516.925009,45.7933324 515.175,45.98 C513.424991,46.1666676 511.686675,46.26 509.96,46.26 C509.633332,46.26 509.330001,46.2366669 509.05,46.19 C508.769999,46.1433331 508.466668,45.9800014 508.14,45.7 C506.693326,49.4800189 506.74001,48.5966494 504.78,52.05 C504.499999,52.7500035 504.103336,53.1233331 503.59,53.17 C503.076664,53.2166669 502.528336,53.0416686 501.945,52.645 C501.361664,52.2483313 500.790003,51.688337 500.23,50.965 C499.669997,50.2416631 499.203335,49.4600042 498.83,48.62 C498.456665,47.7799958 498.211667,46.9633373 498.095,46.17 C497.978333,45.3766627 498.059999,44.6766697 498.34,44.07 C503.00669,35.2499559 500.183315,41.2783789 503.87,32.155 C507.556685,23.0316211 507.729987,13.7567138 510.39,4.33 C510.763335,3.2099944 511.416662,2.70833275 512.35,2.825 C513.283338,2.94166725 514.193329,3.2799972 515.08,3.84 C515.920004,4.6800042 516.608331,5.6599944 517.145,6.78 C517.681669,7.9000056 517.95,9.0666606 517.95,10.28 C517.669999,16.1133625 518.984995,21.9816371 519.895,27.885 C520.805005,33.7883628 524.449988,39.4933058 526.83,45 Z M513.14,29.76 C512.813332,30.8800056 512.393336,32.0466606 511.88,33.26 C511.366664,34.4733394 510.80667,35.6866606 510.2,36.9 L514.96,36.9 C514.633332,35.6866606 514.330001,34.4733394 514.05,33.26 C513.769999,32.0466606 513.466668,30.8800056 513.14,29.76 Z"/>
    <path d="M547.3,38.86 C547.953337,38.6733324 548.606663,38.7433317 549.26,39.07 C549.913337,39.3966683 550.508331,39.8866634 551.045,40.54 C551.581669,41.1933366 552.036665,41.9399958 552.41,42.78 C552.783335,43.6200042 553.005,44.4249962 553.075,45.195 C553.145,45.9650039 553.040001,46.6533303 552.76,47.26 C552.479999,47.8666697 551.96667,48.2633324 551.22,48.45 C547.766649,49.0100028 543.326684,50.2499972 539.92,50.81 C538.473326,51.0900014 536.956675,51.4166648 535.37,51.79 C533.783325,52.1633352 532.290007,52.2333345 530.89,52 C529.443326,51.3933303 528.206672,50.3433408 527.18,48.85 C526.153328,47.3566592 525.476668,45.7466753 525.15,44.02 C525.009999,43.3199965 524.975,42.5500042 525.045,41.71 C525.115,40.8699958 525.219999,40.0300042 525.36,39.19 C525.500001,38.3499958 525.663332,37.5216707 525.85,36.705 C526.036668,35.8883292 526.199999,35.1300035 526.34,34.43 C526.900003,32.9833261 527.459997,31.5716736 528.02,30.195 C528.580003,28.8183264 529.139997,27.4066739 529.7,25.96 C530.820006,22.8333177 532.161659,19.8350143 533.725,16.965 C535.288341,14.0949856 536.769993,11.260014 538.17,8.46 C538.450001,7.8999972 538.823331,7.5966669 539.29,7.55 C539.756669,7.5033331 540.246664,7.58499895 540.76,7.795 C541.273336,8.00500105 541.751664,8.28499825 542.195,8.635 C542.638336,8.98500175 542.999999,9.2999986 543.28,9.58 C543.88667,10.4200042 544.376665,11.4699937 544.75,12.73 C545.123335,13.9900063 545.030003,15.1799944 544.47,16.3 C543.489995,18.4466774 542.475005,20.5466564 541.425,22.6 C540.374995,24.6533436 539.383338,26.7299895 538.45,28.83 C537.516662,30.9300105 536.630004,33.0416561 535.79,35.165 C534.949996,37.2883439 534.250003,39.4933219 533.69,41.78 C535.090007,41.4533317 536.408327,41.1616679 537.645,40.905 C538.881673,40.6483321 540.17666,40.3800014 541.53,40.1 C544.143346,39.7733317 545.013322,39.0933345 547.3,38.86 Z"/>
    <path d="M577.52,36.86 C578.173337,36.6733324 578.826663,36.7433317 579.48,37.07 C580.133337,37.3966683 580.728331,37.8866634 581.265,38.54 C581.801669,39.1933366 582.256665,39.9399958 582.63,40.78 C583.003335,41.6200042 583.225,42.4249961 583.295,43.195 C583.365,43.9650039 583.260001,44.6533303 582.98,45.26 C582.699999,45.8666697 582.18667,46.2633324 581.44,46.45 C577.986649,47.0100028 574.591683,47.5699972 571.255,48.13 C567.918317,48.6900028 564.546684,50.2499972 561.14,50.81 C559.693326,51.0900014 558.176675,51.4166648 556.59,51.79 C555.003325,52.1633352 553.510007,52.2333345 552.11,52 C550.663326,51.3933303 549.426672,50.3433408 548.4,48.85 C547.373328,47.3566592 546.696668,45.7466753 546.37,44.02 C546.229999,43.3199965 546.195,42.5500042 546.265,41.71 C546.335,40.8699958 546.439999,40.0300042 546.58,39.19 C546.720001,38.3499958 546.883332,37.5216707 547.07,36.705 C547.256668,35.8883292 547.419999,35.1300035 547.56,34.43 C548.120003,32.9833261 548.679997,31.5716736 549.24,30.195 C549.800003,28.8183264 550.359997,27.4066739 550.92,25.96 C552.040006,22.8333177 553.381659,19.8350143 554.945,16.965 C556.508341,14.0949857 557.989993,11.260014 559.39,8.46 C559.670001,7.8999972 560.043331,7.5966669 560.51,7.55 C560.976669,7.5033331 561.466664,7.58499895 561.98,7.795 C562.493336,8.00500105 562.971664,8.28499825 563.415,8.635 C563.858336,8.98500175 564.219999,9.2999986 564.5,9.58 C565.10667,10.4200042 565.596665,11.4699937 565.97,12.73 C566.343335,13.9900063 566.250003,15.1799944 565.69,16.3 C564.709995,18.4466774 563.695005,20.5466564 562.645,22.6 C561.594995,24.6533436 560.603338,26.7299895 559.67,28.83 C558.736662,30.9300105 557.850004,33.0416561 557.01,35.165 C556.169996,37.2883439 555.470003,39.4933219 554.91,41.78 C556.310007,41.4533317 557.628327,41.1616679 558.865,40.905 C560.101673,40.6483321 561.39666,40.3800014 562.75,40.1 C565.363346,39.7733317 567.906654,38.376669 570.38,37.91 C572.853346,37.443331 575.233322,37.0933345 577.52,36.86 Z"/>
    <path d="M627.305,36.89 C627.888336,37.3100021 628.436664,37.8583299 628.95,38.535 C629.463336,39.21167 629.883332,39.9583292 630.21,40.775 C630.536668,41.5916707 630.735,42.361663 630.805,43.085 C630.875,43.8083369 630.770001,44.4383306 630.49,44.975 C630.209999,45.5116693 629.69667,45.8266662 628.95,45.92 C625.543316,46.4800028 622.066684,47.2849947 618.52,48.335 C614.973316,49.3850052 614.250003,49.39 613.69,49.39 C612.709995,49.8100021 611.706672,49.6583369 610.68,48.935 C609.653328,48.211663 608.825003,47.278339 608.195,46.135 C607.564997,44.9916609 607.238333,43.848339 607.215,42.705 C607.191667,41.5616609 607.669995,40.7800021 608.65,40.36 C609.770006,39.7999972 610.889994,39.3333352 612.01,38.96 C613.130006,38.5866648 614.249994,38.1200028 615.37,37.56 C615.696668,36.7199958 615.906666,35.7866718 616,34.76 C616.093334,33.7333282 616.279999,32.8000042 616.56,31.96 L618.17,25.52 C618.683336,23.4666564 619.079999,21.2966781 619.36,19.01 C619.266666,19.1033338 619.150001,19.1966662 619.01,19.29 C618.729999,19.4766676 618.473335,19.57 618.24,19.57 C617.259995,19.8500014 616.280005,19.5933373 615.3,18.8 C614.319995,18.0066627 613.52667,17.0266725 612.92,15.86 C612.31333,14.6933275 611.986667,13.538339 611.94,12.395 C611.893333,11.2516609 612.289996,10.4700021 613.13,10.05 C614.576674,9.4899972 616.093325,9.0466683 617.68,8.72 C619.266675,8.3933317 620.759993,8.0900014 622.16,7.81 C622.440001,7.2499972 622.836664,6.9466669 623.35,6.9 C623.863336,6.8533331 624.399997,6.9699986 624.96,7.25 C626.92001,6.6899972 628.903323,6.3633338 630.91,6.27 C632.916677,6.1766662 635.039989,6.13 637.28,6.13 C637.933337,6.13 638.574997,6.363331 639.205,6.83 C639.835003,7.296669 640.406664,7.8799965 640.92,8.58 C641.433336,9.2800035 641.853332,10.0499958 642.18,10.89 C642.506668,11.7300042 642.681667,12.4999965 642.705,13.2 C642.728333,13.9000035 642.588335,14.483331 642.285,14.95 C641.981665,15.416669 641.45667,15.65 640.71,15.65 C638.703323,15.65 636.72001,15.7666655 634.76,16 C632.79999,16.2333345 630.84001,16.4899986 628.88,16.77 C628.039996,19.6166809 627.31667,22.3466536 626.71,24.96 C626.10333,27.5733464 625.520003,30.279986 624.96,33.08 C624.96,33.3600014 624.936667,33.6399986 624.89,33.92 C624.843333,34.2000014 626.721664,36.4699979 627.305,36.89 Z" transform="rotate(-7 624.96 27.876)"/>
    <path d="M669.03 6.22C669.870004 7.0133373 670.604997 8.05166025 671.235 9.335 671.865003 10.6183398 672.063335 11.9366599 671.83 13.29 670.429993 19.5900315 669.041674 25.8549689 667.665 32.085 666.288326 38.3150312 665.040006 44.5566354 663.92 50.81 663.92 51.2300021 663.791668 51.5566655 663.535 51.79 663.278332 52.0233345 662.975002 52.1749997 662.625 52.245 662.274998 52.3150004 661.901669 52.3266669 661.505 52.28 661.108331 52.2333331 660.770001 52.1400007 660.49 52 659.696663 51.3933303 659.090002 50.7166704 658.67 49.97 658.249998 49.2233296 657.760003 48.4300042 657.2 47.59 655.473325 44.0433156 654.038339 40.4850179 652.895 36.915 651.751661 33.3449822 650.736671 29.6466858 649.85 25.82 648.449993 29.9266872 646.933342 34.0916456 645.3 38.315 643.666659 42.5383545 641.986675 46.7033128 640.26 50.81 639.979999 51.6500042 639.583336 52.1399993 639.07 52.28 638.556664 52.4200007 637.99667 52.3383349 637.39 52.035 636.78333 51.7316652 636.200003 51.2650032 635.64 50.635 635.079997 50.0049969 634.590002 49.3166704 634.17 48.57 633.749998 47.8233296 633.470001 47.0650039 633.33 46.295 633.189999 45.5249962 633.259999 44.8600028 633.54 44.3 635.826678 38.0466354 638.066656 31.8050312 640.26 25.575 642.453344 19.3449689 644.52999 13.0800315 646.49 6.78 646.630001 6.2199972 646.886665 5.8233345 647.26 5.59 647.633335 5.3566655 648.053331 5.24 648.52 5.24 648.986669 5.24 649.441664 5.3333324 649.885 5.52 650.328336 5.7066676 650.689999 5.9399986 650.97 6.22 651.810004 7.0133373 652.486664 7.93499475 653 8.985 653.513336 10.0350053 653.77 11.0966613 653.77 12.17 654.330003 15.9966858 655.029996 19.7883146 655.87 23.545 656.710004 27.3016855 657.713328 30.9533156 658.88 34.5 659.673337 29.83331 660.513329 25.2133562 661.4 20.64 662.286671 16.0666438 663.313328 11.44669 664.48 6.78 664.620001 6.2199972 664.876665 5.8233345 665.25 5.59 665.623335 5.3566655 666.043331 5.24 666.51 5.24 666.976669 5.24 667.443331 5.3333324 667.91 5.52 668.376669 5.7066676 668.749999 5.9399986 669.03 6.22zM609.63 17.14C611.263342 19.4266781 612.126666 21.6666557 612.22 23.86 612.313334 26.0533443 611.893338 28.1766564 610.96 30.23 610.026662 32.2833436 608.731675 34.2783237 607.075 36.215 605.418325 38.1516764 603.656676 40.0183244 601.79 41.815 599.923324 43.6116757 598.103342 45.338325 596.33 46.995 594.556658 48.651675 593.110006 50.2266592 591.99 51.72 591.943333 53.1666739 591.745002 54.1816637 591.395 54.765 591.044998 55.3483363 590.590003 55.6283335 590.03 55.605 589.469997 55.5816666 588.863337 55.3250025 588.21 54.835 587.556663 54.3449976 586.92667 53.7266704 586.32 52.98 585.71333 52.2333296 585.165002 51.4516708 584.675 50.635 584.184998 49.8183292 583.823334 49.0600035 583.59 48.36 582.656662 43.4133086 581.898336 38.3966921 581.315 33.31 580.731664 28.2233079 579.950005 23.2766907 578.97 18.47 578.596665 18.47 578.235002 18.4933331 577.885 18.54 577.534998 18.5866669 577.033337 18.7966648 576.38 19.17 575.819997 19.2633338 575.213337 19.0883356 574.56 18.645 573.906663 18.2016645 573.288336 17.5833373 572.705 16.79 572.121664 15.9966627 571.585002 15.1100049 571.095 14.13 570.604998 13.1499951 570.266668 12.2166711 570.08 11.33 569.893332 10.4433289 569.869999 9.6500035 570.01 8.95 570.150001 8.2499965 570.546663 7.7833345 571.2 7.55 571.666669 7.55 572.179997 7.46833415 572.74 7.305 573.300003 7.14166585 573.88333 6.97833415 574.49 6.815 575.09667 6.65166585 575.714997 6.5000007 576.345 6.36 576.975003 6.2199993 577.616663 6.1733331 578.27 6.22 578.27 4.8666599 578.701662 3.9100028 579.565 3.35 580.428338 2.7899972 581.349995 2.8599965 582.33 3.56 582.983337 3.8866683 583.496665 4.2366648 583.87 4.61 584.243335 4.9833352 584.569999 5.5199965 584.85 6.22 587.090011 6.5000014 589.376655 6.86166445 591.71 7.305 594.043345 7.74833555 596.306656 8.3666627 598.5 9.16 600.693344 9.9533373 602.746657 10.9916603 604.66 12.275 606.573343 13.5583398 608.229993 15.1799902 609.63 17.14zM603.05 21.9C597.916641 19.1933198 592.736693 17.84 587.51 17.84 587.51 19.0533394 587.579999 20.2783271 587.72 21.515 587.860001 22.7516728 588.034999 24.0816595 588.245 25.505 588.455001 26.9283405 588.664999 28.5033247 588.875 30.23 589.085001 31.9566753 589.283332 33.8933226 589.47 36.04 590.07667 35.573331 590.706663 35.0483363 591.36 34.465 592.013337 33.8816638 592.829995 33.0766718 593.81 32.05 594.790005 31.0233282 596.014993 29.7050081 597.485 28.095 598.955007 26.4849919 600.809989 24.4200126 603.05 21.9z"/>
  </g>
</svg>
